<?xml version="1.0" encoding="utf-8"?>
<!-- Generator: Adobe Illustrator 23.1.1, SVG Export Plug-In . SVG Version: 6.00 Build 0)  -->
<svg version="1.1" id="Layer_1" xmlns="http://www.w3.org/2000/svg" xmlns:xlink="http://www.w3.org/1999/xlink" x="0px" y="0px"
	 viewBox="0 0 512 512" style="enable-background:new 0 0 512 512;" xml:space="preserve">
<style type="text/css">
	.st0{fill:#E47312;}
</style>
<g>
	<path class="st0" d="M412.2,97.7v-9.8c0-3.9-3.1-7-7-7h-13.3v-3.4c0-13.2-10.6-24-23.8-24.4h0c-0.2,0-0.4,0-0.6,0H113.3
		c-13.2,0-24,10.5-24.4,23.7v0.1c0,0.2,0,0.4,0,0.6v3.4H75.6c-3.9,0-7,3.1-7,7v32.3c0,3.9,3.1,7,7,7h13.3v3.4
		c0,13.5,10.9,24.4,24.4,24.4h35.6v34.2c-0.1,8.7,6.4,16.1,15,17.2c0.6,0.1,1.1,0.1,1.7,0.1c9.2,0,16.8-7.4,16.8-16.7c0,0,0,0,0-0.1
		V155h27.5v3.7c-0.1,8.7,6.4,16.1,15,17.2c9.2,0.9,17.4-5.8,18.4-15c0.1-0.6,0.1-1.1,0.1-1.7V155h124.1c13.5,0,24.4-10.9,24.4-24.4
		v-3.4h13.3c3.9,0,7-3.1,7-7V112c10.2,3.1,17.2,12.5,17.2,23.1v7.1c0,11.8-8.5,21.9-20.1,23.8l-144.1,24.5
		c-18.4,3.1-31.8,19-31.8,37.6v15.1h-16.5c-3.9,0-7,3.1-7,7v178.1c0,16.8,13.7,30.5,30.5,30.5s30.5-13.7,30.5-30.5V250.4
		c0-3.9-3.1-7-7-7l0,0h-16.5v-15.1c0-11.8,8.5-21.9,20.1-23.8L411.6,180c18.4-3.1,31.8-19,31.8-37.6v-7.2
		C443.4,116.8,430.3,101.1,412.2,97.7L412.2,97.7z M82.6,113.2V94.8h6.3v18.3L82.6,113.2z M113.3,141c-5.7,0-10.4-4.7-10.4-10.4
		v-28.9c0.4,0.3,0.9,0.6,1.3,0.9c10.8,6.9,25.5,7.4,43.8,1.3c0.2-0.1,0.4,0,0.5,0.1c0.2,0.1,0.3,0.4,0.3,0.6V141H113.3z M182.4,141
		v-30c0-3.8,1.6-7.5,4.5-10.1c2.9-2.6,6.8-3.9,10.6-3.4c7,0.7,12.3,6.5,12.4,13.5v30H182.4z M229.4,159.3c0,1.5-1.2,2.8-2.8,2.8
		c-0.1,0-0.2,0-0.3,0c-1.5-0.4-2.5-1.8-2.4-3.3V111c0-14.2-10.8-26-24.9-27.4l-0.5-0.1c-15.1-1.4-28.6,9.7-30,24.8
		c-0.1,0.9-0.1,1.8-0.1,2.6v78.8c0,1.5-1.2,2.8-2.8,2.8c-0.1,0-0.2,0-0.3,0c-1.5-0.4-2.5-1.8-2.4-3.3v-84.5
		c0-8.1-6.6-14.7-14.7-14.7c-1.6,0-3.2,0.3-4.7,0.8c-13.7,4.6-24.6,4.6-31.6,0.2c-4.7-3.2-7.9-8.2-9-13.9
		c0.2-5.6,4.8-10.1,10.4-10.1h223.6c-4.8,6-8.6,12.8-11.3,20.1c-4,9.4-7.4,17.5-16.2,22.9c-17.3,10.6-34.4,9.6-52.3-3.1
		c-1.6-1.2-3.3-2.3-5-3.4c-6.8-4.4-15.9-2.5-20.4,4.3c-1.6,2.4-2.4,5.2-2.4,8.1L229.4,159.3z M377.9,130.6c0,5.7-4.7,10.4-10.4,10.4
		H243.4v-25.1c0-0.3,0.1-0.5,0.4-0.7c0.2-0.1,0.4-0.1,0.6,0c1.5,1,3.1,2.1,4.6,3.1c22.3,15.9,45.8,17.1,67.7,3.6
		c12.6-7.8,17.5-19.3,21.8-29.4c5.7-13.4,9.8-23.1,29.3-25.5c5.6,0.2,10.1,4.7,10.1,10.4L377.9,130.6z M398.2,113.2h-6.3V94.8h6.3
		V113.2z M256.9,428.5c0,9.1-7.4,16.5-16.5,16.5s-16.5-7.4-16.5-16.5V257.4h33V428.5z"/>
</g>
</svg>
