<?xml version="1.0" encoding="utf-8"?>
<!-- Generator: Adobe Illustrator 23.1.1, SVG Export Plug-In . SVG Version: 6.00 Build 0)  -->
<svg version="1.1" id="Layer_1" xmlns="http://www.w3.org/2000/svg" xmlns:xlink="http://www.w3.org/1999/xlink" x="0px" y="0px"
	 viewBox="0 0 512 512" style="enable-background:new 0 0 512 512;" xml:space="preserve">
<style type="text/css">
	.st0{fill:#E47312;}
</style>
<g>
	<path class="st0" d="M373.7,373c3.9,0,7-3.1,7-7c0-1.9-0.7-3.6-2-4.9L103.1,85.5c-2.7-2.7-7.2-2.7-9.9,0c-1.3,1.3-2,3.1-2,4.9V366
		c0,3.9,3.1,7,7,7l0,0H373.7z M105.2,107.3L356.8,359h-38.2v-7.4c0-3.9-3.1-7-7-7s-7,3.1-7,7v7.4h-21.3v-7.4c0-3.9-3.1-7-7-7
		s-7,3.1-7,7v7.4h-21.3v-7.4c0-3.9-3.1-7-7-7s-7,3.1-7,7v7.4h-21.3v-7.4c0-3.9-3.1-7-7-7s-7,3.1-7,7v7.4h-21.3v-7.4c0-3.9-3.1-7-7-7
		s-7,3.1-7,7v7.4h-21.3v-7.4c0-3.9-3.1-7-7-7s-7,3.1-7,7v7.4h-23.1L105.2,107.3z"/>
	<path class="st0" d="M135.3,335.9h148.9c3.9,0,7-3.1,7-7c0-1.9-0.7-3.6-2-4.9L140.2,175c-2.7-2.7-7.2-2.7-9.9,0
		c-1.3,1.3-2,3.1-2,4.9v148.9C128.3,332.8,131.4,335.9,135.3,335.9z M142.3,196.9l125,125h-125V196.9z"/>
	<path class="st0" d="M418.8,274.1l-219-219c-2.7-2.7-7.2-2.7-9.9,0c0,0,0,0,0,0L152.9,92c-2.7,2.7-2.7,7.2,0,9.9c0,0,0,0,0,0
		L315.1,264v0h0l56.9,56.9c2.7,2.7,7.2,2.7,9.9,0c0,0,0,0,0,0l36.9-36.9C421.5,281.3,421.5,276.8,418.8,274.1
		C418.8,274.1,418.8,274.1,418.8,274.1L418.8,274.1z M376.9,306.1l-11.8-11.8l9.4-9.4c2.7-2.7,2.7-7.2,0-9.9s-7.2-2.7-9.9,0
		l-9.4,9.4L330,259.1l9.4-9.4c2.7-2.7,2.7-7.2,0-9.9s-7.2-2.7-9.9,0l-9.4,9.4L294.9,224l9.4-9.4c2.7-2.7,2.7-7.2,0-9.9
		s-7.2-2.7-9.9,0l-9.4,9.4l-25.2-25.2l9.4-9.4c2.7-2.7,2.7-7.2,0-9.9s-7.2-2.7-9.9,0l-9.4,9.4l-25.2-25.2l9.4-9.4
		c2.7-2.7,2.7-7.2,0-9.9s-7.2-2.7-9.9,0l-9.4,9.4l-25.2-25.2l9.4-9.4c2.7-2.7,2.7-7.2,0-9.9c-2.7-2.7-7.2-2.7-9.9,0l0,0l-9.4,9.4
		l-11.8-11.8l27-27L403.9,279L376.9,306.1z"/>
	<path class="st0" d="M387.4,394.4h-228c-1,0-1.9,0.2-2.8,0.6l-58.4,25.3c-3.5,1.5-5.2,5.7-3.6,9.2c0.7,1.6,2,2.9,3.6,3.6l58.4,25.3
		c0.9,0.4,1.8,0.6,2.8,0.6h228c16.9,0,30.6-13.7,30.7-30.7v-3.2C418,408.2,404.3,394.5,387.4,394.4L387.4,394.4z M166.4,445v-36.6
		h153.5V445H166.4z M333.9,408.4h10.7V445h-10.7V408.4z M152.4,412.1v29.2l-33.8-14.6L152.4,412.1z M404,428.3
		c0,9.2-7.5,16.7-16.7,16.7h-28.7v-36.6h28.7c9.2,0,16.6,7.5,16.6,16.7V428.3z"/>
</g>
</svg>
