<?xml version="1.0"?>
<svg xmlns="http://www.w3.org/2000/svg" id="Layer_1" data-name="Layer 1" viewBox="0 0 128 128" width="512px" height="512px"><g><title class="active-path" style="">TOOLBOX</title><path d="M113,53.391h-2.646V45.442a9.788,9.788,0,0,0-9.777-9.776H84.721V30.437A11.141,11.141,0,0,0,73.592,19.308H54.408A11.141,11.141,0,0,0,43.279,30.437v5.229H27.423a9.788,9.788,0,0,0-9.777,9.776v7.948H15a1.75,1.75,0,0,0-1.75,1.75v7.745A1.75,1.75,0,0,0,15,64.636h1.072V98.915a9.788,9.788,0,0,0,9.777,9.777h76.3a9.788,9.788,0,0,0,9.777-9.777V64.636H113a1.75,1.75,0,0,0,1.75-1.75V55.141A1.75,1.75,0,0,0,113,53.391Zm-1.75,7.745H75.667V56.891H111.25Zm-75.158,3.5v40.557H30.831V64.636Zm3.5,0H52.333V68.93a1.75,1.75,0,0,0,1.75,1.75H73.917a1.75,1.75,0,0,0,1.75-1.75V64.636H88.408v40.557H39.592ZM30.831,53.391V39.166h5.261V53.391Zm8.761-14.225H88.408V53.391H75.667V49.1a1.75,1.75,0,0,0-1.75-1.75H54.083a1.75,1.75,0,0,0-1.75,1.75v4.294H39.592Zm36.055-3.5H52.353V30.791a2.434,2.434,0,0,1,2.43-2.431H73.217a2.434,2.434,0,0,1,2.43,2.431ZM97.169,53.391H91.908V39.166h5.261Zm-25-2.544V67.18H55.833V50.847ZM91.908,64.636h5.261v40.557H91.908Zm14.947-19.193v7.948h-6.186V39.171A6.281,6.281,0,0,1,106.854,45.442ZM46.779,30.437a7.637,7.637,0,0,1,7.629-7.629H73.592a7.637,7.637,0,0,1,7.629,7.629v5.229H79.147V30.791a5.937,5.937,0,0,0-5.93-5.931H54.783a5.937,5.937,0,0,0-5.93,5.931v4.875H46.779ZM21.146,45.442a6.281,6.281,0,0,1,6.186-6.272v14.22H21.146Zm-4.4,11.448H52.333v4.245H16.75Zm2.822,42.024V64.636h7.759v40.557H25.85A6.285,6.285,0,0,1,19.572,98.915Zm88.855,0a6.285,6.285,0,0,1-6.277,6.277h-1.481V64.636h7.759Z" data-original="#000000" class="active-path" fill="#E47312"/><path d="M64,64.722a5.708,5.708,0,1,0-5.708-5.708A5.715,5.715,0,0,0,64,64.722ZM64,56.8a2.208,2.208,0,1,1-2.208,2.209A2.211,2.211,0,0,1,64,56.8Z" data-original="#000000" class="active-path" fill="#E47312"/></g> </svg>
